<mxfile host="Electron" modified="2023-11-12T21:11:44.690Z" agent="Mozilla/5.0 (Windows NT 10.0; Win64; x64) AppleWebKit/537.36 (KHTML, like Gecko) draw.io/22.0.2 Chrome/114.0.5735.289 Electron/25.8.4 Safari/537.36" etag="-j8RdPbymCxrpKbI-cAz" version="22.0.2" type="device">
  <diagram name="Page-1" id="2YBvvXClWsGukQMizWep">
    <mxGraphModel dx="1290" dy="629" grid="1" gridSize="10" guides="1" tooltips="1" connect="1" arrows="1" fold="1" page="1" pageScale="1" pageWidth="850" pageHeight="1100" math="0" shadow="0">
      <root>
        <mxCell id="0" />
        <mxCell id="1" parent="0" />
        <mxCell id="aM9ryv3xv72pqoxQDRHE-1" value="Main" style="shape=umlLifeline;perimeter=lifelinePerimeter;whiteSpace=wrap;html=1;container=0;dropTarget=0;collapsible=0;recursiveResize=0;outlineConnect=0;portConstraint=eastwest;newEdgeStyle={&quot;edgeStyle&quot;:&quot;elbowEdgeStyle&quot;,&quot;elbow&quot;:&quot;vertical&quot;,&quot;curved&quot;:0,&quot;rounded&quot;:0};" parent="1" vertex="1">
          <mxGeometry x="40" y="40" width="100" height="650" as="geometry" />
        </mxCell>
        <mxCell id="aM9ryv3xv72pqoxQDRHE-2" value="" style="html=1;points=[];perimeter=orthogonalPerimeter;outlineConnect=0;targetShapes=umlLifeline;portConstraint=eastwest;newEdgeStyle={&quot;edgeStyle&quot;:&quot;elbowEdgeStyle&quot;,&quot;elbow&quot;:&quot;vertical&quot;,&quot;curved&quot;:0,&quot;rounded&quot;:0};" parent="aM9ryv3xv72pqoxQDRHE-1" vertex="1">
          <mxGeometry x="45" y="70" width="10" height="560" as="geometry" />
        </mxCell>
        <mxCell id="aM9ryv3xv72pqoxQDRHE-3" value="dispatch" style="html=1;verticalAlign=bottom;startArrow=oval;endArrow=block;startSize=8;edgeStyle=elbowEdgeStyle;elbow=vertical;curved=0;rounded=0;" parent="aM9ryv3xv72pqoxQDRHE-1" target="aM9ryv3xv72pqoxQDRHE-2" edge="1">
          <mxGeometry relative="1" as="geometry">
            <mxPoint x="-15" y="70" as="sourcePoint" />
          </mxGeometry>
        </mxCell>
        <mxCell id="aM9ryv3xv72pqoxQDRHE-5" value="LoginSystem" style="shape=umlLifeline;perimeter=lifelinePerimeter;whiteSpace=wrap;html=1;container=0;dropTarget=0;collapsible=0;recursiveResize=0;outlineConnect=0;portConstraint=eastwest;newEdgeStyle={&quot;edgeStyle&quot;:&quot;elbowEdgeStyle&quot;,&quot;elbow&quot;:&quot;vertical&quot;,&quot;curved&quot;:0,&quot;rounded&quot;:0};" parent="1" vertex="1">
          <mxGeometry x="230" y="40" width="100" height="650" as="geometry" />
        </mxCell>
        <mxCell id="aM9ryv3xv72pqoxQDRHE-6" value="" style="html=1;points=[];perimeter=orthogonalPerimeter;outlineConnect=0;targetShapes=umlLifeline;portConstraint=eastwest;newEdgeStyle={&quot;edgeStyle&quot;:&quot;elbowEdgeStyle&quot;,&quot;elbow&quot;:&quot;vertical&quot;,&quot;curved&quot;:0,&quot;rounded&quot;:0};" parent="aM9ryv3xv72pqoxQDRHE-5" vertex="1">
          <mxGeometry x="45" y="80" width="10" height="550" as="geometry" />
        </mxCell>
        <mxCell id="aM9ryv3xv72pqoxQDRHE-7" value="Login Request" style="html=1;verticalAlign=bottom;endArrow=block;edgeStyle=elbowEdgeStyle;elbow=vertical;curved=0;rounded=0;" parent="1" source="aM9ryv3xv72pqoxQDRHE-2" target="aM9ryv3xv72pqoxQDRHE-6" edge="1">
          <mxGeometry relative="1" as="geometry">
            <mxPoint x="195" y="130" as="sourcePoint" />
            <Array as="points">
              <mxPoint x="180" y="120" />
            </Array>
          </mxGeometry>
        </mxCell>
        <mxCell id="XACryltsBHgH3vyTFNKE-11" value="Users&lt;br&gt;" style="shape=umlLifeline;perimeter=lifelinePerimeter;whiteSpace=wrap;html=1;container=1;dropTarget=0;collapsible=0;recursiveResize=0;outlineConnect=0;portConstraint=eastwest;newEdgeStyle={&quot;curved&quot;:0,&quot;rounded&quot;:0};size=45;" parent="1" vertex="1">
          <mxGeometry x="390" y="40" width="100" height="650" as="geometry" />
        </mxCell>
        <mxCell id="XACryltsBHgH3vyTFNKE-17" value="" style="html=1;points=[[0,0,0,0,5],[0,1,0,0,-5],[1,0,0,0,5],[1,1,0,0,-5]];perimeter=orthogonalPerimeter;outlineConnect=0;targetShapes=umlLifeline;portConstraint=eastwest;newEdgeStyle={&quot;curved&quot;:0,&quot;rounded&quot;:0};" parent="XACryltsBHgH3vyTFNKE-11" vertex="1">
          <mxGeometry x="45" y="90" width="10" height="540" as="geometry" />
        </mxCell>
        <mxCell id="XACryltsBHgH3vyTFNKE-16" value="Access Users&lt;br&gt;" style="html=1;verticalAlign=bottom;endArrow=block;curved=0;rounded=0;" parent="1" source="aM9ryv3xv72pqoxQDRHE-6" target="XACryltsBHgH3vyTFNKE-11" edge="1">
          <mxGeometry width="80" relative="1" as="geometry">
            <mxPoint x="290" y="120" as="sourcePoint" />
            <mxPoint x="360" y="120" as="targetPoint" />
            <Array as="points">
              <mxPoint x="360" y="160" />
            </Array>
          </mxGeometry>
        </mxCell>
        <mxCell id="XACryltsBHgH3vyTFNKE-18" value="Student" style="shape=umlLifeline;perimeter=lifelinePerimeter;whiteSpace=wrap;html=1;container=1;dropTarget=0;collapsible=0;recursiveResize=0;outlineConnect=0;portConstraint=eastwest;newEdgeStyle={&quot;curved&quot;:0,&quot;rounded&quot;:0};" parent="1" vertex="1">
          <mxGeometry x="530" y="40" width="100" height="640" as="geometry" />
        </mxCell>
        <mxCell id="XACryltsBHgH3vyTFNKE-28" value="" style="html=1;points=[[0,0,0,0,5],[0,1,0,0,-5],[1,0,0,0,5],[1,1,0,0,-5]];perimeter=orthogonalPerimeter;outlineConnect=0;targetShapes=umlLifeline;portConstraint=eastwest;newEdgeStyle={&quot;curved&quot;:0,&quot;rounded&quot;:0};" parent="XACryltsBHgH3vyTFNKE-18" vertex="1">
          <mxGeometry x="45" y="130" width="10" height="450" as="geometry" />
        </mxCell>
        <mxCell id="XACryltsBHgH3vyTFNKE-19" value="Staff" style="shape=umlLifeline;perimeter=lifelinePerimeter;whiteSpace=wrap;html=1;container=1;dropTarget=0;collapsible=0;recursiveResize=0;outlineConnect=0;portConstraint=eastwest;newEdgeStyle={&quot;curved&quot;:0,&quot;rounded&quot;:0};" parent="1" vertex="1">
          <mxGeometry x="660" y="40" width="100" height="620" as="geometry" />
        </mxCell>
        <mxCell id="bpCiJg49xN8fVimlC68h-2" value="" style="html=1;points=[[0,0,0,0,5],[0,1,0,0,-5],[1,0,0,0,5],[1,1,0,0,-5]];perimeter=orthogonalPerimeter;outlineConnect=0;targetShapes=umlLifeline;portConstraint=eastwest;newEdgeStyle={&quot;curved&quot;:0,&quot;rounded&quot;:0};" parent="XACryltsBHgH3vyTFNKE-19" vertex="1">
          <mxGeometry x="45" y="220" width="10" height="330" as="geometry" />
        </mxCell>
        <mxCell id="XACryltsBHgH3vyTFNKE-20" value="StudentAffairsStaff" style="shape=umlLifeline;perimeter=lifelinePerimeter;whiteSpace=wrap;html=1;container=1;dropTarget=0;collapsible=0;recursiveResize=0;outlineConnect=0;portConstraint=eastwest;newEdgeStyle={&quot;curved&quot;:0,&quot;rounded&quot;:0};" parent="1" vertex="1">
          <mxGeometry x="800" y="40" width="100" height="610" as="geometry" />
        </mxCell>
        <mxCell id="bpCiJg49xN8fVimlC68h-6" value="" style="html=1;points=[[0,0,0,0,5],[0,1,0,0,-5],[1,0,0,0,5],[1,1,0,0,-5]];perimeter=orthogonalPerimeter;outlineConnect=0;targetShapes=umlLifeline;portConstraint=eastwest;newEdgeStyle={&quot;curved&quot;:0,&quot;rounded&quot;:0};" parent="XACryltsBHgH3vyTFNKE-20" vertex="1">
          <mxGeometry x="45" y="440" width="10" height="120" as="geometry" />
        </mxCell>
        <mxCell id="XACryltsBHgH3vyTFNKE-21" value="Lecturer" style="shape=umlLifeline;perimeter=lifelinePerimeter;whiteSpace=wrap;html=1;container=1;dropTarget=0;collapsible=0;recursiveResize=0;outlineConnect=0;portConstraint=eastwest;newEdgeStyle={&quot;curved&quot;:0,&quot;rounded&quot;:0};" parent="1" vertex="1">
          <mxGeometry x="940" y="40" width="100" height="520" as="geometry" />
        </mxCell>
        <mxCell id="bpCiJg49xN8fVimlC68h-3" value="" style="html=1;points=[[0,0,0,0,5],[0,1,0,0,-5],[1,0,0,0,5],[1,1,0,0,-5]];perimeter=orthogonalPerimeter;outlineConnect=0;targetShapes=umlLifeline;portConstraint=eastwest;newEdgeStyle={&quot;curved&quot;:0,&quot;rounded&quot;:0};" parent="XACryltsBHgH3vyTFNKE-21" vertex="1">
          <mxGeometry x="45" y="170" width="10" height="170" as="geometry" />
        </mxCell>
        <mxCell id="XACryltsBHgH3vyTFNKE-22" value="Advisor" style="shape=umlLifeline;perimeter=lifelinePerimeter;whiteSpace=wrap;html=1;container=1;dropTarget=0;collapsible=0;recursiveResize=0;outlineConnect=0;portConstraint=eastwest;newEdgeStyle={&quot;curved&quot;:0,&quot;rounded&quot;:0};" parent="1" vertex="1">
          <mxGeometry x="1080" y="40" width="100" height="520" as="geometry" />
        </mxCell>
        <mxCell id="bpCiJg49xN8fVimlC68h-7" value="" style="html=1;points=[[0,0,0,0,5],[0,1,0,0,-5],[1,0,0,0,5],[1,1,0,0,-5]];perimeter=orthogonalPerimeter;outlineConnect=0;targetShapes=umlLifeline;portConstraint=eastwest;newEdgeStyle={&quot;curved&quot;:0,&quot;rounded&quot;:0};" parent="XACryltsBHgH3vyTFNKE-22" vertex="1">
          <mxGeometry x="45" y="200" width="10" height="210" as="geometry" />
        </mxCell>
        <mxCell id="XACryltsBHgH3vyTFNKE-23" value="Course" style="shape=umlLifeline;perimeter=lifelinePerimeter;whiteSpace=wrap;html=1;container=1;dropTarget=0;collapsible=0;recursiveResize=0;outlineConnect=0;portConstraint=eastwest;newEdgeStyle={&quot;curved&quot;:0,&quot;rounded&quot;:0};" parent="1" vertex="1">
          <mxGeometry x="1220" y="40" width="100" height="520" as="geometry" />
        </mxCell>
        <mxCell id="bpCiJg49xN8fVimlC68h-8" value="" style="html=1;points=[[0,0,0,0,5],[0,1,0,0,-5],[1,0,0,0,5],[1,1,0,0,-5]];perimeter=orthogonalPerimeter;outlineConnect=0;targetShapes=umlLifeline;portConstraint=eastwest;newEdgeStyle={&quot;curved&quot;:0,&quot;rounded&quot;:0};" parent="XACryltsBHgH3vyTFNKE-23" vertex="1">
          <mxGeometry x="45" y="240" width="10" height="150" as="geometry" />
        </mxCell>
        <mxCell id="XACryltsBHgH3vyTFNKE-24" value="Transcript&lt;br&gt;" style="shape=umlLifeline;perimeter=lifelinePerimeter;whiteSpace=wrap;html=1;container=1;dropTarget=0;collapsible=0;recursiveResize=0;outlineConnect=0;portConstraint=eastwest;newEdgeStyle={&quot;curved&quot;:0,&quot;rounded&quot;:0};" parent="1" vertex="1">
          <mxGeometry x="1350" y="40" width="100" height="520" as="geometry" />
        </mxCell>
        <mxCell id="bpCiJg49xN8fVimlC68h-9" value="" style="html=1;points=[[0,0,0,0,5],[0,1,0,0,-5],[1,0,0,0,5],[1,1,0,0,-5]];perimeter=orthogonalPerimeter;outlineConnect=0;targetShapes=umlLifeline;portConstraint=eastwest;newEdgeStyle={&quot;curved&quot;:0,&quot;rounded&quot;:0};" parent="XACryltsBHgH3vyTFNKE-24" vertex="1">
          <mxGeometry x="45" y="270" width="10" height="110" as="geometry" />
        </mxCell>
        <mxCell id="XACryltsBHgH3vyTFNKE-25" value="Grade" style="shape=umlLifeline;perimeter=lifelinePerimeter;whiteSpace=wrap;html=1;container=1;dropTarget=0;collapsible=0;recursiveResize=0;outlineConnect=0;portConstraint=eastwest;newEdgeStyle={&quot;curved&quot;:0,&quot;rounded&quot;:0};" parent="1" vertex="1">
          <mxGeometry x="1500" y="40" width="100" height="520" as="geometry" />
        </mxCell>
        <mxCell id="bpCiJg49xN8fVimlC68h-10" value="" style="html=1;points=[[0,0,0,0,5],[0,1,0,0,-5],[1,0,0,0,5],[1,1,0,0,-5]];perimeter=orthogonalPerimeter;outlineConnect=0;targetShapes=umlLifeline;portConstraint=eastwest;newEdgeStyle={&quot;curved&quot;:0,&quot;rounded&quot;:0};" parent="XACryltsBHgH3vyTFNKE-25" vertex="1">
          <mxGeometry x="45" y="280" width="10" height="80" as="geometry" />
        </mxCell>
        <mxCell id="XACryltsBHgH3vyTFNKE-27" value="Access Student&lt;br&gt;" style="html=1;verticalAlign=bottom;endArrow=block;curved=0;rounded=0;" parent="1" source="XACryltsBHgH3vyTFNKE-17" edge="1">
          <mxGeometry x="-0.0335" y="10" width="80" relative="1" as="geometry">
            <mxPoint x="450" y="210" as="sourcePoint" />
            <mxPoint x="580" y="210" as="targetPoint" />
            <Array as="points">
              <mxPoint x="550" y="210" />
            </Array>
            <mxPoint as="offset" />
          </mxGeometry>
        </mxCell>
        <mxCell id="bpCiJg49xN8fVimlC68h-1" value="Access Lecturer" style="html=1;verticalAlign=bottom;endArrow=block;curved=0;rounded=0;" parent="1" target="XACryltsBHgH3vyTFNKE-21" edge="1">
          <mxGeometry width="80" relative="1" as="geometry">
            <mxPoint x="579.1666666666667" y="230" as="sourcePoint" />
            <mxPoint x="705" y="230" as="targetPoint" />
          </mxGeometry>
        </mxCell>
        <mxCell id="bpCiJg49xN8fVimlC68h-11" value="registiredCourse&lt;br&gt;" style="html=1;verticalAlign=bottom;endArrow=block;curved=0;rounded=0;" parent="1" target="XACryltsBHgH3vyTFNKE-23" edge="1">
          <mxGeometry width="80" relative="1" as="geometry">
            <mxPoint x="580" y="310" as="sourcePoint" />
            <mxPoint x="660" y="310" as="targetPoint" />
          </mxGeometry>
        </mxCell>
        <mxCell id="bpCiJg49xN8fVimlC68h-12" value="return" style="html=1;verticalAlign=bottom;endArrow=open;dashed=1;endSize=8;curved=0;rounded=0;" parent="1" edge="1">
          <mxGeometry relative="1" as="geometry">
            <mxPoint x="1265" y="360" as="sourcePoint" />
            <mxPoint x="579.5" y="360" as="targetPoint" />
            <Array as="points">
              <mxPoint x="1230" y="360" />
            </Array>
          </mxGeometry>
        </mxCell>
        <mxCell id="bpCiJg49xN8fVimlC68h-14" value="Access StudentAffairStaff&lt;br&gt;" style="html=1;verticalAlign=bottom;endArrow=block;curved=0;rounded=0;" parent="1" edge="1">
          <mxGeometry width="80" relative="1" as="geometry">
            <mxPoint x="716" y="510" as="sourcePoint" />
            <mxPoint x="850.5" y="510" as="targetPoint" />
            <Array as="points">
              <mxPoint x="761" y="510" />
            </Array>
          </mxGeometry>
        </mxCell>
        <mxCell id="bpCiJg49xN8fVimlC68h-15" value="Access Lecturer" style="html=1;verticalAlign=bottom;endArrow=block;curved=0;rounded=0;" parent="1" source="bpCiJg49xN8fVimlC68h-2" edge="1">
          <mxGeometry width="80" relative="1" as="geometry">
            <mxPoint x="710" y="330" as="sourcePoint" />
            <mxPoint x="990" y="330" as="targetPoint" />
          </mxGeometry>
        </mxCell>
        <mxCell id="bpCiJg49xN8fVimlC68h-16" value="Access Advisor" style="html=1;verticalAlign=bottom;endArrow=block;curved=0;rounded=0;exitX=0.55;exitY=0.409;exitDx=0;exitDy=0;exitPerimeter=0;" parent="1" edge="1">
          <mxGeometry x="-0.0009" width="80" relative="1" as="geometry">
            <mxPoint x="585" y="290" as="sourcePoint" />
            <mxPoint x="1129.5" y="290" as="targetPoint" />
            <mxPoint as="offset" />
          </mxGeometry>
        </mxCell>
        <mxCell id="bpCiJg49xN8fVimlC68h-17" value="dispatch" style="html=1;verticalAlign=bottom;endArrow=block;curved=0;rounded=0;" parent="1" edge="1">
          <mxGeometry width="80" relative="1" as="geometry">
            <mxPoint x="1405" y="359.5" as="sourcePoint" />
            <mxPoint x="1549.5" y="359.5" as="targetPoint" />
          </mxGeometry>
        </mxCell>
        <mxCell id="bpCiJg49xN8fVimlC68h-18" value="return" style="html=1;verticalAlign=bottom;endArrow=open;dashed=1;endSize=8;curved=0;rounded=0;" parent="1" edge="1">
          <mxGeometry relative="1" as="geometry">
            <mxPoint x="1545" y="390" as="sourcePoint" />
            <mxPoint x="1399.5" y="390" as="targetPoint" />
          </mxGeometry>
        </mxCell>
        <mxCell id="bpCiJg49xN8fVimlC68h-19" value="Access Transcript&lt;br&gt;" style="html=1;verticalAlign=bottom;endArrow=block;curved=0;rounded=0;" parent="1" edge="1">
          <mxGeometry width="80" relative="1" as="geometry">
            <mxPoint x="1275" y="330" as="sourcePoint" />
            <mxPoint x="1399.5" y="330" as="targetPoint" />
          </mxGeometry>
        </mxCell>
        <mxCell id="bpCiJg49xN8fVimlC68h-20" value="return" style="html=1;verticalAlign=bottom;endArrow=open;dashed=1;endSize=8;curved=0;rounded=0;" parent="1" source="bpCiJg49xN8fVimlC68h-9" target="XACryltsBHgH3vyTFNKE-23" edge="1">
          <mxGeometry relative="1" as="geometry">
            <mxPoint x="1400" y="400" as="sourcePoint" />
            <mxPoint x="1310" y="400" as="targetPoint" />
            <Array as="points">
              <mxPoint x="1350" y="400" />
            </Array>
          </mxGeometry>
        </mxCell>
        <mxCell id="eSU8PP1l4QoKjDMlH0Y1-1" value="Access Staff" style="html=1;verticalAlign=bottom;endArrow=block;curved=0;rounded=0;" edge="1" parent="1">
          <mxGeometry width="80" relative="1" as="geometry">
            <mxPoint x="445" y="269.5" as="sourcePoint" />
            <mxPoint x="705" y="269.5" as="targetPoint" />
          </mxGeometry>
        </mxCell>
        <mxCell id="eSU8PP1l4QoKjDMlH0Y1-2" value="Access Advisor" style="html=1;verticalAlign=bottom;endArrow=block;curved=0;rounded=0;" edge="1" parent="1">
          <mxGeometry width="80" relative="1" as="geometry">
            <mxPoint x="990" y="250" as="sourcePoint" />
            <mxPoint x="1124.5" y="250" as="targetPoint" />
          </mxGeometry>
        </mxCell>
        <mxCell id="eSU8PP1l4QoKjDMlH0Y1-3" value="return" style="html=1;verticalAlign=bottom;endArrow=open;dashed=1;endSize=8;curved=0;rounded=0;" edge="1" parent="1">
          <mxGeometry relative="1" as="geometry">
            <mxPoint x="1129.5" y="270" as="sourcePoint" />
            <mxPoint x="989.5" y="270" as="targetPoint" />
          </mxGeometry>
        </mxCell>
        <mxCell id="eSU8PP1l4QoKjDMlH0Y1-4" value="Access Advisor" style="html=1;verticalAlign=bottom;endArrow=block;curved=0;rounded=0;" edge="1" parent="1" source="XACryltsBHgH3vyTFNKE-28">
          <mxGeometry width="80" relative="1" as="geometry">
            <mxPoint x="590" y="390" as="sourcePoint" />
            <mxPoint x="1130" y="390" as="targetPoint" />
          </mxGeometry>
        </mxCell>
        <mxCell id="eSU8PP1l4QoKjDMlH0Y1-6" value="return" style="html=1;verticalAlign=bottom;endArrow=open;dashed=1;endSize=8;curved=0;rounded=0;" edge="1" parent="1" source="bpCiJg49xN8fVimlC68h-7">
          <mxGeometry relative="1" as="geometry">
            <mxPoint x="1120" y="430" as="sourcePoint" />
            <mxPoint x="580" y="430" as="targetPoint" />
          </mxGeometry>
        </mxCell>
        <mxCell id="eSU8PP1l4QoKjDMlH0Y1-7" value="return" style="html=1;verticalAlign=bottom;endArrow=open;dashed=1;endSize=8;curved=0;rounded=0;exitX=0.5;exitY=0.927;exitDx=0;exitDy=0;exitPerimeter=0;" edge="1" parent="1">
          <mxGeometry relative="1" as="geometry">
            <mxPoint x="280" y="650" as="sourcePoint" />
            <mxPoint x="95" y="650" as="targetPoint" />
          </mxGeometry>
        </mxCell>
        <mxCell id="eSU8PP1l4QoKjDMlH0Y1-8" value="return" style="html=1;verticalAlign=bottom;endArrow=open;dashed=1;endSize=8;curved=0;rounded=0;" edge="1" parent="1">
          <mxGeometry relative="1" as="geometry">
            <mxPoint x="439.5" y="630" as="sourcePoint" />
            <mxPoint x="285" y="630" as="targetPoint" />
          </mxGeometry>
        </mxCell>
        <mxCell id="eSU8PP1l4QoKjDMlH0Y1-9" value="return" style="html=1;verticalAlign=bottom;endArrow=open;dashed=1;endSize=8;curved=0;rounded=0;" edge="1" parent="1">
          <mxGeometry relative="1" as="geometry">
            <mxPoint x="845" y="549" as="sourcePoint" />
            <mxPoint x="715" y="549" as="targetPoint" />
          </mxGeometry>
        </mxCell>
        <mxCell id="eSU8PP1l4QoKjDMlH0Y1-10" value="return" style="html=1;verticalAlign=bottom;endArrow=open;dashed=1;endSize=8;curved=0;rounded=0;" edge="1" parent="1">
          <mxGeometry relative="1" as="geometry">
            <mxPoint x="985" y="280" as="sourcePoint" />
            <mxPoint x="580" y="280" as="targetPoint" />
          </mxGeometry>
        </mxCell>
        <mxCell id="eSU8PP1l4QoKjDMlH0Y1-11" value="return" style="html=1;verticalAlign=bottom;endArrow=open;dashed=1;endSize=8;curved=0;rounded=0;exitX=0.5;exitY=0.941;exitDx=0;exitDy=0;exitPerimeter=0;" edge="1" parent="1" source="bpCiJg49xN8fVimlC68h-3" target="bpCiJg49xN8fVimlC68h-2">
          <mxGeometry relative="1" as="geometry">
            <mxPoint x="980" y="370" as="sourcePoint" />
            <mxPoint x="910" y="370" as="targetPoint" />
          </mxGeometry>
        </mxCell>
        <mxCell id="eSU8PP1l4QoKjDMlH0Y1-12" value="Access Grade" style="html=1;verticalAlign=bottom;endArrow=block;curved=0;rounded=0;" edge="1" parent="1">
          <mxGeometry width="80" relative="1" as="geometry">
            <mxPoint x="580" y="340" as="sourcePoint" />
            <mxPoint x="1545" y="340" as="targetPoint" />
          </mxGeometry>
        </mxCell>
        <mxCell id="eSU8PP1l4QoKjDMlH0Y1-13" value="return" style="html=1;verticalAlign=bottom;endArrow=open;dashed=1;endSize=8;curved=0;rounded=0;" edge="1" parent="1">
          <mxGeometry relative="1" as="geometry">
            <mxPoint x="575" y="600" as="sourcePoint" />
            <mxPoint x="445" y="600" as="targetPoint" />
          </mxGeometry>
        </mxCell>
        <mxCell id="eSU8PP1l4QoKjDMlH0Y1-14" value="return" style="html=1;verticalAlign=bottom;endArrow=open;dashed=1;endSize=8;curved=0;rounded=0;" edge="1" parent="1">
          <mxGeometry relative="1" as="geometry">
            <mxPoint x="705" y="570" as="sourcePoint" />
            <mxPoint x="445" y="570" as="targetPoint" />
          </mxGeometry>
        </mxCell>
        <mxCell id="eSU8PP1l4QoKjDMlH0Y1-15" value="return" style="html=1;verticalAlign=bottom;endArrow=open;dashed=1;endSize=8;curved=0;rounded=0;" edge="1" parent="1">
          <mxGeometry relative="1" as="geometry">
            <mxPoint x="1265" y="410" as="sourcePoint" />
            <mxPoint x="579.5" y="410" as="targetPoint" />
          </mxGeometry>
        </mxCell>
      </root>
    </mxGraphModel>
  </diagram>
</mxfile>
